# xmcd
#
# Track frame offsets:
#	150
#	14445
#	25367
#	45005
#	58747
#	70160
#	82020
#	94367
#	106327
#	117252
#	128240
#	142347
#	156075
#	169455
#	194515
#
# Disc length: 2800 seconds
#
# Revision: 1
# Processed by: cddbd v1.5.2PL0 Copyright (c) Steve Scherf et al.
# Submitted via: audiograbber 1.83.01
#
DISCID=d80aee0f
DTITLE=Ralph Emery Presents Country Roads - Gentle On My Mind
DYEAR=2006
DGENRE=Classic Country
TTITLE0=Tex Ritter - I Dream Of A Hillbilly Heaven
TTITLE1=Faron Young - Hello Walls
TTITLE2=Marty Robbins - El Paso
TTITLE3=Patti Page (with The Jack Rael Orchrestra) - Tennessee Waltz
TTITLE4=Ray Price - Crazy Arms
TTITLE5=Kitty Wells - Heartbreak U.S.A.
TTITLE6=Don Gibson and Dottie West - Rings of Gold
TTITLE7=Eddy Arnold - Make The World Go Away
TTITLE8=Sonny James - I'll Never Find Another You
TTITLE9=George Jones - Tender Tears
TTITLE10=Merle Haggard - Branded Man
TTITLE11=Dolly Parton - Joshua
TTITLE12=Glen Campbell - Gentle On My Mind
TTITLE13=Ray Stevens - Shriner's Convention
TTITLE14=John Denver - Thank God I'm A Country Boy
EXTD=
EXTT0=
EXTT1=
EXTT2=
EXTT3=
EXTT4=
EXTT5=
EXTT6=
EXTT7=
EXTT8=
EXTT9=
EXTT10=
EXTT11=
EXTT12=
EXTT13=
EXTT14=
PLAYORDER=
